<?xml version="1.0" encoding="UTF-8"?>
<svg viewBox="0 0 818 850" xmlns="http://www.w3.org/2000/svg">
  <!-- Background for transparency -->
  <rect width="818" height="850" fill="transparent"/>
  
  <!-- Thought Bubble A (Left) -->
  <g transform="translate(170, 130)">
    <!-- Cloud-like thought bubble using multiple overlapping circles -->
    <circle cx="-30" cy="-20" r="25" fill="white" stroke="black" stroke-width="3"/>
    <circle cx="0" cy="-35" r="30" fill="white" stroke="black" stroke-width="3"/>
    <circle cx="30" cy="-25" r="28" fill="white" stroke="black" stroke-width="3"/>
    <circle cx="35" cy="5" r="25" fill="white" stroke="black" stroke-width="3"/>
    <circle cx="15" cy="25" r="22" fill="white" stroke="black" stroke-width="3"/>
    <circle cx="-20" cy="20" r="24" fill="white" stroke="black" stroke-width="3"/>
    <circle cx="-35" cy="0" r="20" fill="white" stroke="black" stroke-width="3"/>
    <circle cx="-10" cy="-5" r="28" fill="white" stroke="black" stroke-width="3"/>
    
    <!-- Smaller connecting bubbles -->
    <circle cx="50" cy="65" r="15" fill="white" stroke="black" stroke-width="2"/>
    <circle cx="65" cy="85" r="10" fill="white" stroke="black" stroke-width="2"/>
    <circle cx="75" cy="105" r="6" fill="white" stroke="black" stroke-width="2"/>
    
    <!-- Text -->
    <text x="0" y="-8" text-anchor="middle" font-family="Arial, sans-serif" font-size="18" font-weight="bold" fill="black">Firma Legal A</text>
    <text x="0" y="15" text-anchor="middle" font-family="Arial, sans-serif" font-size="18" font-weight="bold" fill="black">US$1,200</text>
  </g>
  
  <!-- Thought Bubble B (Center) -->
  <g transform="translate(409, 90)">
    <!-- Cloud-like thought bubble using multiple overlapping circles -->
    <circle cx="-35" cy="-25" r="30" fill="white" stroke="black" stroke-width="3"/>
    <circle cx="0" cy="-40" r="35" fill="white" stroke="black" stroke-width="3"/>
    <circle cx="35" cy="-30" r="32" fill="white" stroke="black" stroke-width="3"/>
    <circle cx="40" cy="5" r="30" fill="white" stroke="black" stroke-width="3"/>
    <circle cx="20" cy="30" r="25" fill="white" stroke="black" stroke-width="3"/>
    <circle cx="-25" cy="25" r="28" fill="white" stroke="black" stroke-width="3"/>
    <circle cx="-40" cy="0" r="25" fill="white" stroke="black" stroke-width="3"/>
    <circle cx="-5" cy="-5" r="32" fill="white" stroke="black" stroke-width="3"/>
    
    <!-- Smaller connecting bubbles -->
    <circle cx="0" cy="75" r="15" fill="white" stroke="black" stroke-width="2"/>
    <circle cx="0" cy="100" r="10" fill="white" stroke="black" stroke-width="2"/>
    <circle cx="0" cy="120" r="6" fill="white" stroke="black" stroke-width="2"/>
    
    <!-- Text -->
    <text x="0" y="-8" text-anchor="middle" font-family="Arial, sans-serif" font-size="18" font-weight="bold" fill="black">Firma Legal B</text>
    <text x="0" y="15" text-anchor="middle" font-family="Arial, sans-serif" font-size="18" font-weight="bold" fill="black">US$1,750</text>
  </g>
  
  <!-- Thought Bubble C (Right) -->
  <g transform="translate(648, 130)">
    <!-- Cloud-like thought bubble using multiple overlapping circles -->
    <circle cx="30" cy="-20" r="25" fill="white" stroke="black" stroke-width="3"/>
    <circle cx="0" cy="-35" r="30" fill="white" stroke="black" stroke-width="3"/>
    <circle cx="-30" cy="-25" r="28" fill="white" stroke="black" stroke-width="3"/>
    <circle cx="-35" cy="5" r="25" fill="white" stroke="black" stroke-width="3"/>
    <circle cx="-15" cy="25" r="22" fill="white" stroke="black" stroke-width="3"/>
    <circle cx="20" cy="20" r="24" fill="white" stroke="black" stroke-width="3"/>
    <circle cx="35" cy="0" r="20" fill="white" stroke="black" stroke-width="3"/>
    <circle cx="10" cy="-5" r="28" fill="white" stroke="black" stroke-width="3"/>
    
    <!-- Smaller connecting bubbles -->
    <circle cx="-50" cy="65" r="15" fill="white" stroke="black" stroke-width="2"/>
    <circle cx="-65" cy="85" r="10" fill="white" stroke="black" stroke-width="2"/>
    <circle cx="-75" cy="105" r="6" fill="white" stroke="black" stroke-width="2"/>
    
    <!-- Text -->
    <text x="0" y="-8" text-anchor="middle" font-family="Arial, sans-serif" font-size="18" font-weight="bold" fill="black">Firma Legal C</text>
    <text x="0" y="15" text-anchor="middle" font-family="Arial, sans-serif" font-size="18" font-weight="bold" fill="black">US$2,500</text>
  </g>
</svg>